<?xml version="1.0" encoding="utf-8"?>
<!-- Generator: Adobe Illustrator 16.0.0, SVG Export Plug-In . SVG Version: 6.00 Build 0)  -->
<!DOCTYPE svg PUBLIC "-//W3C//DTD SVG 1.1//EN" "http://www.w3.org/Graphics/SVG/1.1/DTD/svg11.dtd">
<svg version="1.1" id="Capa_1" xmlns="http://www.w3.org/2000/svg" xmlns:xlink="http://www.w3.org/1999/xlink" x="0px" y="0px"
	 width="32px" height="32px" viewBox="0 0 32 32" enable-background="new 0 0 32 32" xml:space="preserve">
<title>bell</title>
<path fill="#FCFCFC" d="M32.047,25c0-9-8-7-8-14c0-0.58-0.056-1.076-0.158-1.498c-0.525-3.532-2.88-6.366-5.93-7.23
	C17.986,2.149,18,2.021,18,1.89c0-1.04-0.9-1.891-2-1.891c-1.1,0-2,0.851-2,1.891c0,0.131,0.014,0.258,0.041,0.382
	c-3.421,0.969-5.966,4.416-6.039,8.545C8.001,10.877,8,10.938,8,11c0,7-8,5-8,14c0,2.382,5.331,4.375,12.468,4.878
	C13.141,31.141,14.47,32,16,32c1.529,0,2.859-0.859,3.532-2.122C26.669,29.375,32,27.383,32,25c0-0.007-0.001-0.014-0.001-0.021
	L32.047,25z M25.82,26.691c-1.695,0.451-3.692,0.776-5.838,0.957c-0.178-2.043-1.893-3.647-3.983-3.647s-3.805,1.604-3.984,3.647
	c-2.144-0.18-4.142-0.506-5.837-0.957C3.846,26.068,2.731,25.373,2.323,25c0.408-0.372,1.523-1.068,3.855-1.691
	c2.712-0.724,6.199-1.121,9.82-1.121s7.109,0.397,9.82,1.121c2.332,0.623,3.447,1.318,3.854,1.691
	c-0.407,0.372-1.522,1.068-3.854,1.691H25.82z"/>
</svg>
