<?xml version="1.0" encoding="utf-8"?>
<!-- Generator: Adobe Illustrator 16.0.0, SVG Export Plug-In . SVG Version: 6.00 Build 0)  -->
<!DOCTYPE svg PUBLIC "-//W3C//DTD SVG 1.1//EN" "http://www.w3.org/Graphics/SVG/1.1/DTD/svg11.dtd">
<svg version="1.1" id="Capa_1" xmlns="http://www.w3.org/2000/svg" xmlns:xlink="http://www.w3.org/1999/xlink" x="0px" y="0px"
	 width="32px" height="32px" viewBox="0 0 32 32" enable-background="new 0 0 32 32" xml:space="preserve">
<title>briefcase</title>
<path fill="#FCFCFC" d="M30,8h-8V6c0-1.1-0.9-2-2-2h-8c-1.1,0-2,0.9-2,2v2H2c-1.1,0-2,0.9-2,2v18c0,1.1,0.9,2,2,2h28
	c1.1,0,2-0.9,2-2V10C32,8.9,31.1,8,30,8z M12,6.004C12.001,6.003,12.002,6.001,12.004,6h7.993C19.998,6.001,20,6.002,20.001,6.004V8
	h-8L12,6.004L12,6.004z M30,16h-4v3c0,0.55-0.45,1-1,1h-2c-0.55,0-1-0.45-1-1v-3H10v3c0,0.55-0.45,1-1,1H7c-0.55,0-1-0.45-1-1v-3H2
	v-2h28V16z"/>
</svg>
