<?xml version="1.0" encoding="utf-8"?>
<!-- Generator: Adobe Illustrator 16.0.0, SVG Export Plug-In . SVG Version: 6.00 Build 0)  -->
<!DOCTYPE svg PUBLIC "-//W3C//DTD SVG 1.1//EN" "http://www.w3.org/Graphics/SVG/1.1/DTD/svg11.dtd">
<svg version="1.1" id="Capa_1" xmlns="http://www.w3.org/2000/svg" xmlns:xlink="http://www.w3.org/1999/xlink" x="0px" y="0px"
	 width="32px" height="32px" viewBox="0 0 32 32" enable-background="new 0 0 32 32" xml:space="preserve">
<title>search</title>
<path fill="#FCFCFC" d="M0.761,31.238c1.1,1.1,2.904,0.996,4.008-0.23l6.446-7.58c0.705-0.783,1.029-1.621,0.998-2.299
	c2.097,1.789,4.814,2.87,7.787,2.87c6.627,0,12-5.373,12-12s-5.373-12-12-12s-12,5.373-12,12c0,2.972,1.081,5.69,2.87,7.787
	c-0.678-0.031-1.516,0.293-2.299,0.998l-7.58,6.446C-0.235,28.335-0.339,30.139,0.761,31.238z M11.999,12c0-4.418,3.582-8,8-8
	s8,3.582,8,8s-3.582,8-8,8S11.999,16.418,11.999,12z"/>
</svg>
