<?xml version="1.0" encoding="utf-8"?>
<!-- Generator: Adobe Illustrator 16.0.0, SVG Export Plug-In . SVG Version: 6.00 Build 0)  -->
<!DOCTYPE svg PUBLIC "-//W3C//DTD SVG 1.1//EN" "http://www.w3.org/Graphics/SVG/1.1/DTD/svg11.dtd">
<svg version="1.1" id="Capa_1" xmlns="http://www.w3.org/2000/svg" xmlns:xlink="http://www.w3.org/1999/xlink" x="0px" y="0px"
	 width="32px" height="32px" viewBox="0 0 32 32" enable-background="new 0 0 32 32" xml:space="preserve">
<title>trello</title>
<path fill="#FCFCFC" d="M29,0H3C1.35,0,0,1.35,0,3v26c0,1.65,1.35,3,3,3h26c1.65,0,3-1.35,3-3V3C32,1.35,30.65,0,29,0z M14,24
	c0,1.1-0.9,2-2,2H8c-1.1,0-2-0.9-2-2V8c0-1.1,0.9-2,2-2h4c1.1,0,2,0.9,2,2V24z M26,18c0,1.1-0.9,2-2,2h-4c-1.1,0-2-0.9-2-2V8
	c0-1.1,0.9-2,2-2h4c1.1,0,2,0.9,2,2V18z"/>
</svg>
